<svg xmlns="http://www.w3.org/2000/svg" width="40" height="40" fill="none">
  <g filter="url(#a)">
    <path fill="#61BA00" stroke="#61BA00" d="M34.5 19c0 8.008-6.492 14.5-14.5 14.5S5.5 27.008 5.5 19 11.992 4.5 20 4.5 34.5 10.992 34.5 19Z"/>
    <path stroke="#fff" stroke-width="2" d="m13.3 19.72 3.513 3.6 9.387-9.3"/>
    <circle cx="20" cy="19" r="15" fill="#037DD6"/>
    <path fill="#fff" fill-rule="evenodd" stroke="#fff" stroke-linecap="round" stroke-linejoin="round" stroke-width="2" d="M17.206 13.206a.702.702 0 0 1 .993 0l4.914 4.915a.702.702 0 0 1 0 .992L18.2 24.028a.702.702 0 0 1-.993-.993l4.418-4.418-4.418-4.418a.702.702 0 0 1 0-.993Z" clip-rule="evenodd"/>
  </g>
  <defs>
    <filter id="a" width="40" height="40" x="0" y="0" color-interpolation-filters="sRGB" filterUnits="userSpaceOnUse">
      <feFlood flood-opacity="0" result="BackgroundImageFix"/>
      <feColorMatrix in="SourceAlpha" result="hardAlpha" values="0 0 0 0 0 0 0 0 0 0 0 0 0 0 0 0 0 0 127 0"/>
      <feOffset dy="1"/>
      <feGaussianBlur stdDeviation="2.5"/>
      <feColorMatrix values="0 0 0 0 0 0 0 0 0 0 0 0 0 0 0 0 0 0 0.25 0"/>
      <feBlend in2="BackgroundImageFix" result="effect1_dropShadow_1070_2119"/>
      <feBlend in="SourceGraphic" in2="effect1_dropShadow_1070_2119" result="shape"/>
    </filter>
  </defs>
</svg>